<svg width="1371" height="834" viewBox="0 0 1371 834" fill="none" xmlns="http://www.w3.org/2000/svg">
<path d="M40.929 89.8256C131.183 61.4508 207.497 49.8541 288.773 105.37C325.63 130.784 356.817 168.042 401.235 178.898C460.302 193.209 525.984 153.237 575.364 125.109C602.535 109.565 630.65 80.4496 660.184 70.0866C682.393 62.191 700.821 69.3464 722.085 77.9822C780.68 101.422 829.823 130.784 893.142 139.173C1026.4 156.692 1235.73 143.121 1303.54 1C1366.62 68.1127 1401.82 185.56 1330.47 262.789C1294.8 301.527 1170.52 312.877 1200.05 387.145C1210.21 412.559 1234.78 430.077 1245.89 454.998C1258.88 483.866 1253.69 512.488 1250.14 543.083C1236.44 655.596 1274.95 738.993 1334.25 833C1259.36 810.053 1211.63 769.095 1146.66 729.37C1097.04 699.021 1055.46 703.709 1004.19 729.37C943.467 759.966 893.615 832.506 822.735 832.013C765.322 831.766 708.146 800.184 656.876 776.99C605.37 754.044 538.506 716.786 479.912 728.63C426.043 739.486 394.147 795.743 340.988 813.508C230.179 851.012 111.809 778.718 1 772.056C2.4176 703.216 25.808 662.257 67.8634 611.183C127.639 538.642 219.783 454.998 117.952 375.548C75.424 342.485 -33.2586 306.215 14.7035 232.934C26.9893 214.428 51.0885 207.273 64.3194 190.248C95.2703 149.536 69.281 125.356 40.929 89.8256Z" stroke="#04123F" stroke-width="0.25" stroke-miterlimit="10" stroke-linecap="round" stroke-linejoin="round"/>
<path d="M2.18164 740.226C104.721 749.356 215.53 795.002 315.471 750.343C365.56 728.136 394.62 689.892 452.033 687.178C512.281 684.217 572.057 708.891 628.288 728.383C678.613 745.901 732.482 768.354 786.587 767.368C860.065 765.887 903.775 702.229 967.33 672.373C1017.89 648.44 1057.11 654.115 1104.6 681.256C1167.68 717.527 1214.94 746.395 1289.13 757.991" stroke="#04123F" stroke-width="0.25" stroke-miterlimit="10" stroke-linecap="round" stroke-linejoin="round"/>
<path d="M5.72461 713.826C105.193 725.669 203.952 743.681 300.113 704.45C351.619 683.477 387.531 656.336 444.708 657.816C505.428 659.297 564.259 678.789 622.38 695.074C671.76 708.891 723.502 723.942 775.245 719.747C840.218 714.319 878.257 664.478 935.433 637.584C983.868 614.637 1023.8 621.052 1070.11 644.492C1136.97 678.295 1185.4 695.814 1261.72 695.567" stroke="#04123F" stroke-width="0.25" stroke-miterlimit="10" stroke-linecap="round" stroke-linejoin="round"/>
<path d="M13.5225 689.645C119.842 705.93 208.915 700.008 310.273 663.491C364.851 643.752 404.78 631.168 462.901 637.83C520.55 644.245 576.782 659.543 633.486 671.633C679.322 681.256 726.811 689.892 773.828 683.477C833.131 675.334 868.807 631.908 922.44 609.949C969.221 590.703 1006.08 601.066 1050.5 620.312C1119.96 650.414 1172.88 655.595 1248.25 643.752" stroke="#04123F" stroke-width="0.25" stroke-miterlimit="10" stroke-linecap="round" stroke-linejoin="round"/>
<path d="M27.6973 664.231C90.3079 676.321 150.792 682.49 213.403 666.452C254.041 655.842 292.552 637.83 332.954 625.987C443.054 593.664 546.775 638.077 656.875 651.401C698.931 656.582 741.459 658.309 783.278 649.674C835.256 639.064 870.933 601.806 920.076 585.028C964.73 569.977 999.934 585.275 1041.75 600.819C1114.05 627.961 1172.17 620.558 1245.65 599.092" stroke="#04123F" stroke-width="0.25" stroke-miterlimit="10" stroke-linecap="round" stroke-linejoin="round"/>
<path d="M49.4355 634.375C115.118 649.92 174.893 657.816 239.394 634.869C281.922 619.571 320.67 596.378 365.56 587.742C472.353 566.769 577.727 629.687 685.938 629.934C723.976 629.934 761.307 624.506 797.692 613.403C843.764 599.585 883.929 564.549 930.71 556.406C972.056 549.251 1004.42 571.457 1042.23 584.288C1114.76 608.961 1178.55 589.222 1248.49 561.094" stroke="#04123F" stroke-width="0.25" stroke-miterlimit="10" stroke-linecap="round" stroke-linejoin="round"/>
<path d="M80.3848 596.625C145.358 615.377 204.188 627.714 267.744 598.352C306.019 580.587 339.333 554.68 382.097 548.511C448.015 539.135 506.61 573.432 568.748 589.963C616.473 602.547 666.326 608.715 715.233 600.079C754.453 593.417 790.602 576.886 826.987 560.848C862.899 545.057 906.136 515.695 946.538 518.656C979.851 521.123 1007.49 545.304 1037.5 558.381C1112.87 591.197 1183.28 559.614 1253.21 525.071" stroke="#04123F" stroke-width="0.25" stroke-miterlimit="10" stroke-linecap="round" stroke-linejoin="round"/>
<path d="M122.441 547.524C182.453 569.237 239.866 588.729 297.751 551.965C329.411 531.733 353.274 504.098 392.73 501.878C459.121 497.93 522.204 548.018 585.996 563.315C637.266 575.652 689.245 576.146 738.861 556.9C802.653 531.98 889.599 433.285 961.66 464.374C991.902 477.451 1012.93 509.033 1041.28 525.565C1113.58 567.757 1189.42 526.058 1255.34 489.788" stroke="#04123F" stroke-width="0.25" stroke-miterlimit="10" stroke-linecap="round" stroke-linejoin="round"/>
<path d="M162.842 481.645C214.348 498.423 263.491 514.461 315.706 493.735C343.822 482.385 364.141 466.594 395.564 468.321C456.285 471.775 516.06 509.526 576.545 520.63C628.996 530.252 681.211 532.226 732.48 516.188C799.58 495.462 890.779 400.468 961.423 421.194C991.665 430.077 1014.58 459.685 1041.75 474.736C1111.92 513.227 1178.32 487.813 1246.83 456.478" stroke="#04123F" stroke-width="0.25" stroke-miterlimit="10" stroke-linecap="round" stroke-linejoin="round"/>
<path d="M164.024 431.064C211.041 442.414 257.35 453.024 305.548 446.608C334.136 442.661 357.999 436.492 387.06 441.18C496.924 458.698 596.392 511.5 710.982 488.801C749.493 481.152 785.169 464.373 820.137 446.608C852.978 429.83 892.907 397.261 930.709 396.274C967.094 395.287 1000.17 424.895 1032.3 438.713C1100.59 468.074 1160.83 452.53 1228.64 426.869" stroke="#04123F" stroke-width="0.25" stroke-miterlimit="10" stroke-linecap="round" stroke-linejoin="round"/>
<path d="M137.799 392.079C213.168 401.208 291.136 401.208 365.56 417.493C468.099 439.946 573.947 475.476 680.031 469.308C717.361 467.087 751.619 456.724 785.878 441.426C822.972 424.648 859.121 391.585 898.577 384.43C935.435 377.768 971.111 395.78 1005.84 406.143C1077.43 427.856 1136.02 421.687 1208.32 399.728" stroke="#04123F" stroke-width="0.25" stroke-miterlimit="10" stroke-linecap="round" stroke-linejoin="round"/>
<path d="M96.2158 360.25C282.394 358.03 461.248 432.298 646.008 453.024C680.03 456.725 711.454 453.764 743.586 441.427C785.642 425.389 817.301 389.859 858.884 375.301C899.995 360.744 942.05 370.367 983.633 377.522C1057.82 390.352 1120.43 390.846 1194.86 374.068" stroke="#04123F" stroke-width="0.25" stroke-miterlimit="10" stroke-linecap="round" stroke-linejoin="round"/>
<path d="M51.7979 332.369C111.337 323.733 165.678 321.759 223.327 341.498C262.075 354.822 298.696 374.561 338.625 384.184C388.241 396.028 440.22 391.586 490.309 400.469C533.545 407.871 573.711 423.662 615.766 435.506C644.827 443.648 671.525 448.089 701.058 439.453C749.965 425.143 780.444 382.457 826.043 361.731C869.753 341.745 918.187 342.485 964.732 346.186C1044.12 352.602 1118.07 359.264 1197.93 348.654" stroke="#04123F" stroke-width="0.25" stroke-miterlimit="10" stroke-linecap="round" stroke-linejoin="round"/>
<path d="M15.8848 304.241C82.7482 285.489 139.688 285.242 203.953 313.37C241.283 329.902 275.778 353.835 315.471 365.185C371.23 381.223 427.461 364.692 484.165 373.328C523.858 379.496 558.589 395.534 595.21 411.325C690.662 451.79 727.756 377.029 809.268 336.81C934.725 274.879 1092.32 323.733 1225.57 321.759" stroke="#04123F" stroke-width="0.25" stroke-miterlimit="10" stroke-linecap="round" stroke-linejoin="round"/>
<path d="M1.23438 271.671C65.9714 244.777 118.895 241.323 182.215 274.386C226.633 297.579 266.798 333.603 314.76 348.9C368.865 366.172 414.701 341.498 468.806 341.252C514.405 341.005 550.081 357.536 591.192 375.548C620.961 388.625 644.824 399.235 677.193 387.885C729.644 369.626 767.919 315.344 818.953 291.411C964.493 223.311 1136.5 272.412 1287 292.397" stroke="#04123F" stroke-width="0.25" stroke-miterlimit="10" stroke-linecap="round" stroke-linejoin="round"/>
<path d="M9.26953 241.323C81.0946 212.948 136.617 211.714 205.134 251.193C246.954 275.373 284.993 310.163 331.773 323.98C388.714 340.758 440.456 309.669 497.396 307.696C533.781 306.462 565.914 314.851 599.936 326.694C691.607 358.277 739.569 294.618 825.334 266.984C985.05 215.169 1162.01 259.088 1324.57 269.204" stroke="#04123F" stroke-width="0.25" stroke-miterlimit="10" stroke-linecap="round" stroke-linejoin="round"/>
<path d="M28.1709 219.116C102.122 191.728 159.535 189.261 228.289 232.193C268.69 257.361 304.603 293.878 350.675 307.942C407.851 325.707 459.121 292.397 515.116 283.515C547.721 278.333 577.491 280.061 609.623 285.982C693.734 301.28 751.383 259.088 833.367 242.31C1003.24 207.52 1179.26 241.569 1350.79 233.427" stroke="#04123F" stroke-width="0.25" stroke-miterlimit="10" stroke-linecap="round" stroke-linejoin="round"/>
<path d="M51.0898 201.104C126.931 174.704 186.234 171.002 255.224 217.636C293.972 243.79 327.758 282.034 372.885 296.592C453.688 322.746 536.618 249.465 620.256 249.959C696.098 250.452 763.197 229.233 838.802 220.103C1014.11 198.637 1192.02 223.064 1366.15 189.014" stroke="#04123F" stroke-width="0.25" stroke-miterlimit="10" stroke-linecap="round" stroke-linejoin="round"/>
<path d="M71.1709 183.093C143.705 159.406 206.079 151.017 272.47 196.17C311.454 222.818 344.059 265.503 388.949 282.035C474.242 313.617 550.319 229.973 631.595 214.182C701.766 200.364 782.097 202.585 852.977 198.39C1024.27 188.521 1206.9 203.325 1369.93 139.42" stroke="#04123F" stroke-width="0.25" stroke-miterlimit="10" stroke-linecap="round" stroke-linejoin="round"/>
<path d="M80.8574 161.379C155.518 137.939 221.436 127.576 289.244 175.197C327.52 202.091 359.179 246.01 403.834 262.295C494.088 295.111 564.259 203.325 642.463 175.197C662.309 168.041 679.32 169.522 700.112 171.496C753.744 176.43 805.487 178.898 859.592 178.898C1023.09 178.404 1218.48 184.573 1361.19 89.5786" stroke="#04123F" stroke-width="0.25" stroke-miterlimit="10" stroke-linecap="round" stroke-linejoin="round"/>
<path d="M73.0615 131.525C155.755 105.864 225.926 95.2541 299.877 149.536C336.735 176.678 367.922 217.389 412.813 230.466C508.028 258.348 574.183 162.12 652.151 128.317C671.997 119.681 688.536 123.382 709.091 128.317C760.361 140.407 808.087 154.718 861.01 158.419C1014.11 168.782 1226.99 166.808 1339.45 41.9587" stroke="#04123F" stroke-width="0.25" stroke-miterlimit="10" stroke-linecap="round" stroke-linejoin="round"/>
<path d="M1286.29 35.5432C1338.98 100.189 1350.32 200.364 1282.04 260.075C1237.62 299.059 1124.68 316.578 1153.51 399.482C1163.9 429.584 1188 452.53 1196.04 484.113C1202.89 511.501 1197.45 540.122 1194.85 568.003C1184.69 667.932 1231.24 738.993 1286.76 817.949" stroke="#04123F" stroke-width="0.25" stroke-miterlimit="10" stroke-linecap="round" stroke-linejoin="round"/>
<path d="M1258.17 65.1514C1300.7 128.07 1293.85 209.493 1232.18 257.36C1182.09 296.345 1079.08 317.564 1110.98 405.156C1120.43 430.817 1138.62 452.283 1146.42 478.931C1155.63 510.76 1151.38 540.615 1148.54 572.938C1140.75 667.192 1190.84 727.149 1246.12 798.456" stroke="#04123F" stroke-width="0.25" stroke-miterlimit="10" stroke-linecap="round" stroke-linejoin="round"/>
<path d="M1222.03 89.5786C1263.14 148.796 1226.28 220.596 1175.95 256.127C1121.61 294.371 1041.52 318.305 1072.7 405.156C1084.28 437.479 1107.91 461.906 1113.58 497.683C1117.36 522.85 1112.4 548.511 1110.03 573.678C1102.47 660.53 1160.6 715.059 1212.81 776.99" stroke="#04123F" stroke-width="0.25" stroke-miterlimit="10" stroke-linecap="round" stroke-linejoin="round"/>
<path d="M1179.02 109.317C1202.65 159.405 1174.77 215.661 1134.61 245.023C1096.33 272.658 1050.5 279.073 1030.89 332.122C1021.43 358.029 1027.58 377.028 1038.21 401.455C1051.2 431.557 1073.18 453.27 1079.79 486.826C1086.17 518.162 1077.43 548.264 1076.25 579.846C1073.18 653.868 1139.1 705.929 1183.75 755.524" stroke="#04123F" stroke-width="0.25" stroke-miterlimit="10" stroke-linecap="round" stroke-linejoin="round"/>
<path d="M1131.06 124.369C1159.42 257.114 927.638 266.243 1007.02 395.04C1024.51 423.415 1047.9 445.375 1054.51 480.165C1060.18 510.02 1050.73 538.395 1048.61 567.757C1043.41 640.298 1112.87 688.165 1156.82 735.538" stroke="#04123F" stroke-width="0.25" stroke-miterlimit="10" stroke-linecap="round" stroke-linejoin="round"/>
<path d="M1080.03 134.979C1076.25 186.3 1057.82 214.675 1020.25 245.024C969.694 285.983 927.166 326.941 977.491 387.639C995.447 409.105 1018.36 427.61 1028.05 455.491C1040.57 491.762 1025.22 525.072 1023.56 561.095C1020.49 629.688 1088.77 674.348 1130.83 719.254" stroke="#04123F" stroke-width="0.25" stroke-miterlimit="10" stroke-linecap="round" stroke-linejoin="round"/>
<path d="M1027.58 141.394C1011.51 185.066 1003.01 212.948 969.929 245.023C922.203 290.917 894.088 331.382 950.792 380.976C971.11 398.988 996.627 414.286 1007.5 441.18C1022.62 477.944 1004.42 512.981 1001.59 549.745C996.155 619.571 1061.36 661.764 1104.13 708.891" stroke="#04123F" stroke-width="0.25" stroke-miterlimit="10" stroke-linecap="round" stroke-linejoin="round"/>
<path d="M975.364 143.861C954.1 176.924 949.847 214.921 923.149 245.023C875.423 298.812 860.775 335.083 925.275 376.781C953.391 394.793 986.468 407.624 994.265 445.621C1001.12 479.178 981.743 514.461 978.671 547.03C972.056 614.143 1034.9 660.036 1074.36 706.67" stroke="#04123F" stroke-width="0.25" stroke-miterlimit="10" stroke-linecap="round" stroke-linejoin="round"/>
<path d="M925.274 142.134C898.812 173.47 892.197 219.61 872.35 255.387C838.328 317.071 831.949 348.901 900.466 375.795C923.384 384.678 955.989 393.067 969.692 417C990.011 452.284 966.384 498.177 958.115 533.46C939.923 612.17 994.028 653.128 1039.86 713.332" stroke="#04123F" stroke-width="0.25" stroke-miterlimit="10" stroke-linecap="round" stroke-linejoin="round"/>
<path d="M878.968 136.953C844.945 172.483 841.874 222.817 825.808 267.724C817.302 291.904 792.258 321.019 807.615 348.16C820.61 371.107 853.923 375.548 875.896 380.483C898.578 385.418 935.435 388.625 950.556 411.078C973.947 445.375 943.941 498.917 934.254 533.214C909.446 619.819 950.793 658.556 998.755 732.331" stroke="#04123F" stroke-width="0.25" stroke-miterlimit="10" stroke-linecap="round" stroke-linejoin="round"/>
<path d="M838.093 128.07C799.345 174.457 796.746 215.662 784.46 272.905C777.845 303.747 753.273 344.212 776.9 372.834C792.257 391.339 831.005 389.612 851.088 391.093C877.549 393.067 915.825 390.352 932.127 416.507C953.155 450.063 917.951 508.293 906.374 540.862C897.868 565.043 886.055 591.937 886.291 618.585C886.764 668.426 927.402 723.449 949.138 763.914" stroke="#04123F" stroke-width="0.25" stroke-miterlimit="10" stroke-linecap="round" stroke-linejoin="round"/>
<path d="M804.542 115.733C752.563 177.418 751.854 229.726 740.513 306.708C737.206 328.668 720.194 368.393 734.134 389.859C752.799 418.727 798.162 411.325 825.806 410.091C849.432 409.104 897.867 399.235 912.988 426.623C926.219 450.556 889.361 520.383 882.51 537.655C867.625 574.666 844.943 614.884 842.58 655.842C839.745 708.891 870.224 764.16 889.361 810.794" stroke="#04123F" stroke-width="0.25" stroke-miterlimit="10" stroke-linecap="round" stroke-linejoin="round"/>
<path d="M761.305 95.5007C720.195 171.989 717.596 240.336 709.091 325.214C706.964 346.68 690.898 389.859 705.074 410.338C723.503 436.986 767.448 429.09 793.438 427.857C816.119 426.87 863.609 417.494 878.494 443.401C891.961 466.594 858.647 533.214 852.032 550.485C837.383 588.236 813.993 628.701 810.685 669.906C806.196 725.422 837.147 779.952 858.411 828.065" stroke="#04123F" stroke-width="0.25" stroke-miterlimit="10" stroke-linecap="round" stroke-linejoin="round"/>
<path d="M728.936 80.4492C696.804 165.574 690.425 245.517 682.864 335.329C680.974 356.796 666.089 401.455 680.265 421.934C697.985 447.595 739.804 441.427 765.321 441.427C788.239 441.427 833.366 434.518 848.015 460.426C861.718 484.359 831.712 544.316 824.388 562.822C809.503 599.339 783.75 637.83 778.316 677.802C770.755 733.318 801.234 784.886 823.679 832.506" stroke="#04123F" stroke-width="0.25" stroke-miterlimit="10" stroke-linecap="round" stroke-linejoin="round"/>
<path d="M705.074 70.8267C680.03 159.899 668.689 246.997 659.947 339.277C657.821 361.237 643.881 405.403 657.584 426.376C674.596 452.283 713.107 448.336 738.86 451.296C762.959 454.011 804.778 450.309 818.954 477.204C832.658 502.865 806.432 554.186 797.218 574.912C781.624 609.209 752.8 643.505 744.53 680.763C732.481 734.305 762.487 781.678 784.932 827.078" stroke="#04123F" stroke-width="0.25" stroke-miterlimit="10" stroke-linecap="round" stroke-linejoin="round"/>
<path d="M687.119 66.1384C667.509 156.198 650.025 246.257 639.393 338.044C629.47 422.181 632.777 439.453 714.053 457.711C739.097 463.386 777.609 464.62 791.312 492.748C804.543 520.383 782.807 562.575 770.757 585.522C753.982 617.104 721.614 645.479 710.037 679.529C692.789 729.617 721.377 771.562 744.295 814.248" stroke="#04123F" stroke-width="0.25" stroke-miterlimit="10" stroke-linecap="round" stroke-linejoin="round"/>
<path d="M673.178 65.8921C658.057 152.991 635.376 238.609 620.964 325.707C616.002 355.562 602.062 397.754 620.018 425.389C634.431 447.842 666.563 453.024 689.008 460.673C770.284 488.554 788.004 538.642 729.174 613.65C713.344 633.883 687.591 649.921 675.305 672.374C650.024 719.254 676.722 754.291 700.822 796.483" stroke="#04123F" stroke-width="0.25" stroke-miterlimit="10" stroke-linecap="round" stroke-linejoin="round"/>
<path d="M660.42 69.8394C648.37 156.198 620.255 234.66 601.353 319.291C583.633 398.988 593.793 426.376 663.019 461.412C732.481 496.449 766.031 550.978 699.64 617.351C681.684 635.363 653.804 646.219 638.683 666.205C607.496 707.657 632.304 736.772 657.112 776.99" stroke="#04123F" stroke-width="0.25" stroke-miterlimit="10" stroke-linecap="round" stroke-linejoin="round"/>
<path d="M647.188 77.9819C637.737 162.366 607.731 226.518 582.687 305.227C556.934 386.404 573.945 415.026 635.138 459.192C688.298 497.683 742.639 553.692 673.886 613.65C652.858 631.908 624.27 638.57 603.715 656.582C563.549 691.866 586.467 717.28 613.402 757.498" stroke="#04123F" stroke-width="0.25" stroke-miterlimit="10" stroke-linecap="round" stroke-linejoin="round"/>
<path d="M630.651 89.8257C626.398 143.368 619.546 186.794 595.447 234.414C584.106 256.62 569.221 276.853 559.534 300.046C528.111 374.808 552.21 407.871 604.425 455.244C648.134 495.216 710.509 561.095 640.338 612.416C617.42 629.195 588.123 632.649 565.441 648.687C521.496 679.529 541.815 701.489 570.875 741.214" stroke="#04123F" stroke-width="0.25" stroke-miterlimit="10" stroke-linecap="round" stroke-linejoin="round"/>
<path d="M608.679 105.123C606.316 157.925 602.299 197.896 573.475 241.816C560.953 261.061 543.469 276.853 532.364 297.332C496.452 364.445 525.749 401.455 569.222 449.322C606.788 490.281 669.635 560.848 603.008 607.235C579.381 623.766 550.084 626.727 525.276 640.544C476.842 667.685 500.232 693.346 529.765 730.357" stroke="#04123F" stroke-width="0.25" stroke-miterlimit="10" stroke-linecap="round" stroke-linejoin="round"/>
<path d="M578.909 123.382C578.909 174.951 578.2 212.948 545.123 252.673C531.419 269.204 512.046 280.308 499.996 298.566C461.012 356.55 493.381 396.768 529.293 442.168C561.662 482.879 621.91 554.433 562.134 598.353C538.744 615.378 508.738 618.832 484.402 633.389C434.55 663.245 460.067 690.139 491.963 727.397" stroke="#04123F" stroke-width="0.25" stroke-miterlimit="10" stroke-linecap="round" stroke-linejoin="round"/>
<path d="M538.979 144.355C541.815 191.975 545.595 230.713 511.1 265.997C494.798 282.528 472.825 290.177 458.176 309.176C422.973 355.316 454.16 395.287 482.748 433.778C515.353 477.204 566.386 543.33 511.1 588.483C489.363 606.248 460.303 612.417 438.566 629.935C391.785 667.686 425.099 699.022 457.467 735.045" stroke="#04123F" stroke-width="0.25" stroke-miterlimit="10" stroke-linecap="round" stroke-linejoin="round"/>
<path d="M486.763 168.042C492.433 211.221 501.647 252.919 467.152 284.995C449.432 301.527 423.443 304.241 408.322 324.473C379.97 362.471 406.668 393.313 429.113 424.402C455.103 460.673 493.378 509.28 471.878 556.654C456.993 589.47 414.229 603.287 392.728 630.181C352.563 680.269 393.201 717.527 427.932 755.771" stroke="#04123F" stroke-width="0.25" stroke-miterlimit="10" stroke-linecap="round" stroke-linejoin="round"/>
<path d="M445.89 180.132C453.214 221.09 464.791 261.062 431.477 292.151C414.23 308.189 388.713 310.163 373.592 330.148C345.476 367.159 372.647 389.612 396.037 417C427.697 454.011 449.197 499.164 428.17 548.511C412.34 585.769 376.191 608.222 355.872 642.272C321.377 699.762 357.999 741.214 393.439 785.873" stroke="#04123F" stroke-width="0.25" stroke-miterlimit="10" stroke-linecap="round" stroke-linejoin="round"/>
<path d="M411.63 180.872C420.608 220.843 433.367 258.841 400.289 289.19C382.805 305.227 356.816 306.955 341.695 326.694C312.398 365.185 343.822 384.184 368.63 410.338C406.196 449.816 413.284 495.956 392.02 547.771C375.717 587.742 342.168 615.624 323.03 653.621C292.788 714.319 323.975 757.004 358.706 806.105" stroke="#04123F" stroke-width="0.25" stroke-miterlimit="10" stroke-linecap="round" stroke-linejoin="round"/>
<path d="M381.862 172.236C392.73 214.182 405.488 248.725 370.285 279.567C353.746 294.125 330.356 296.592 314.998 313.617C278.85 354.329 317.597 377.275 345.24 404.663C394.856 454.011 383.279 516.189 350.438 574.912C333.9 604.521 310.273 629.688 295.388 660.284C264.91 721.968 290.427 764.9 324.213 818.196" stroke="#04123F" stroke-width="0.25" stroke-miterlimit="10" stroke-linecap="round" stroke-linejoin="round"/>
<path d="M355.164 157.185C367.214 199.624 379.972 231.947 344.296 263.036C326.812 278.087 302.713 280.801 286.647 298.566C246.482 342.732 295.861 370.86 324.922 399.975C379.972 455.738 360.598 521.617 323.268 585.029C306.021 614.144 282.867 639.558 267.509 670.153C238.212 728.877 259.004 770.329 289.01 823.377" stroke="#04123F" stroke-width="0.25" stroke-miterlimit="10" stroke-linecap="round" stroke-linejoin="round"/>
<path d="M329.647 137.94C343.35 181.119 355.4 211.468 319.015 243.05C300.822 258.841 275.305 261.802 258.53 280.308C214.348 328.422 275.542 363.952 306.02 395.781C366.74 459.193 342.641 528.526 297.987 596.872C279.794 624.754 256.64 649.427 240.81 678.789C211.986 732.578 227.816 771.563 253.569 822.884" stroke="#04123F" stroke-width="0.25" stroke-miterlimit="10" stroke-linecap="round" stroke-linejoin="round"/>
<path d="M303.656 116.72C318.777 160.639 330.354 189.261 293.497 221.337C274.359 237.868 247.897 241.569 230.177 260.815C181.979 313.123 255.458 357.043 287.354 391.833C353.508 463.387 327.047 536.174 273.414 608.715C218.6 682.983 175.6 720.981 217.655 817.455" stroke="#04123F" stroke-width="0.25" stroke-miterlimit="10" stroke-linecap="round" stroke-linejoin="round"/>
<path d="M275.543 96.241C292.318 140.654 303.659 167.548 266.565 200.611C246.955 218.129 219.312 222.324 200.883 242.31C149.141 298.813 234.669 350.874 268.219 388.132C339.572 467.088 311.928 544.07 248.609 619.572C194.74 683.724 149.85 718.761 181.982 808.82" stroke="#04123F" stroke-width="0.25" stroke-miterlimit="10" stroke-linecap="round" stroke-linejoin="round"/>
<path d="M243.409 78.9692C262.074 123.135 273.888 149.29 236.794 183.093C216.947 201.351 188.595 206.286 169.93 227.259C115.825 287.463 211.75 346.186 247.19 385.418C323.74 470.542 293.97 551.966 221.673 629.195C169.93 684.217 123.622 716.293 146.068 799.444" stroke="#04123F" stroke-width="0.25" stroke-miterlimit="10" stroke-linecap="round" stroke-linejoin="round"/>
<path d="M205.606 67.3723C226.397 110.798 239.392 135.965 203.007 171.002C183.16 190.001 154.808 195.676 136.143 217.142C81.0933 281.047 185.759 342.485 222.617 382.703C304.601 472.022 269.634 557.147 190.721 634.869C141.814 683.23 96.4506 712.592 109.682 789.327" stroke="#04123F" stroke-width="0.25" stroke-miterlimit="10" stroke-linecap="round" stroke-linejoin="round"/>
<path d="M160.48 63.6714C183.634 105.123 199.228 129.797 164.26 166.314C145.359 186.053 117.007 192.222 99.287 214.181C45.4183 281.047 155.518 340.758 193.794 380.483C281.921 472.022 235.377 558.134 155.046 635.856C108.974 680.516 67.8636 709.631 73.534 780.692" stroke="#04123F" stroke-width="0.25" stroke-miterlimit="10" stroke-linecap="round" stroke-linejoin="round"/>
<path d="M106.139 70.3335C131.419 108.578 151.738 133.252 119.133 171.249C101.886 191.235 74.479 198.144 58.4129 220.35C8.08815 289.683 119.842 341.005 159.299 378.262C327.757 538.395 22.0279 618.585 37.6215 774.523" stroke="#04123F" stroke-width="0.25" stroke-miterlimit="10" stroke-linecap="round" stroke-linejoin="round"/>
</svg>
