<svg width="25" height="25" viewBox="0 0 35 35" fill="none" xmlns="http://www.w3.org/2000/svg">
<path d="M33.6 0H1.4C0.625625 0 0 0.625625 0 1.4V33.6C0 34.3744 0.625625 35 1.4 35H33.6C34.3744 35 35 34.3744 35 33.6V1.4C35 0.625625 34.3744 0 33.6 0ZM32.2 32.2H24.1456V21.4463H28.6956L29.3781 16.1656H24.1456V12.7925C24.1456 11.2612 24.57 10.22 26.7619 10.22H29.5575V5.495C29.0719 5.42938 27.4137 5.285 25.48 5.285C21.4463 5.285 18.6856 7.74812 18.6856 12.2675V16.1612H14.1269V21.4419H18.69V32.2H2.8V2.8H32.2V32.2Z" fill="#7882A4"/>
</svg>
