<svg width="35" height="35" viewBox="0 0 49 35" fill="none" xmlns="http://www.w3.org/2000/svg">
<path d="M48.2759 17.3492C48.2759 17.2307 48.2759 17.096 48.2705 16.9398C48.2651 16.5035 48.2543 16.0134 48.2435 15.4909C48.2004 13.9881 48.125 12.4908 48.0065 11.0796C47.8448 9.13512 47.6078 7.51385 47.2845 6.29655C46.9433 5.0262 46.2746 3.86761 45.3452 2.93658C44.4158 2.00555 43.2582 1.3347 41.9881 0.991074C40.4634 0.581717 37.4785 0.328562 33.2759 0.172361C31.2769 0.0969527 29.1379 0.0484761 26.9989 0.0215448C26.25 0.0107722 25.555 0.00538627 24.93 0H23.3459C22.7209 0.00538627 22.0259 0.0107722 21.2769 0.0215448C19.1379 0.0484761 16.9989 0.0969527 15 0.172361C10.7974 0.333949 7.80711 0.587103 6.28772 0.991074C5.01725 1.33385 3.85921 2.00442 2.92966 2.93558C2.0001 3.86674 1.33168 5.02578 0.991379 6.29655C0.662716 7.51385 0.431035 9.13512 0.269397 11.0796C0.150862 12.4908 0.075431 13.9881 0.0323275 15.4909C0.0161637 16.0134 0.0107758 16.5035 0.00538785 16.9398C0.00538785 17.096 0 17.2307 0 17.3492V17.6508C0 17.7693 -8.22936e-08 17.904 0.00538785 18.0602C0.0107758 18.4965 0.0215516 18.9866 0.0323275 19.5091C0.075431 21.0118 0.150862 22.5092 0.269397 23.9204C0.431035 25.8649 0.668104 27.4861 0.991379 28.7034C1.68103 31.2835 3.7069 33.3195 6.28772 34.0089C7.80711 34.4183 10.7974 34.6714 15 34.8276C16.9989 34.903 19.1379 34.9515 21.2769 34.9785C22.0259 34.9892 22.7209 34.9946 23.3459 35H24.93C25.555 34.9946 26.25 34.9892 26.9989 34.9785C29.1379 34.9515 31.2769 34.903 33.2759 34.8276C37.4785 34.666 40.4688 34.4129 41.9881 34.0089C44.569 33.3195 46.5948 31.2889 47.2845 28.7034C47.6131 27.4861 47.8448 25.8649 48.0065 23.9204C48.125 22.5092 48.2004 21.0118 48.2435 19.5091C48.2597 18.9866 48.2651 18.4965 48.2705 18.0602C48.2705 17.904 48.2759 17.7693 48.2759 17.6508V17.3492ZM44.3966 17.6293C44.3966 17.7424 44.3966 17.8663 44.3912 18.0117C44.3858 18.4318 44.375 18.895 44.3642 19.396C44.3265 20.8287 44.2511 22.2615 44.1379 23.5919C43.9925 25.3263 43.7877 26.7482 43.5345 27.7016C43.2004 28.9458 42.2198 29.9315 40.9806 30.2601C39.8491 30.5617 36.9989 30.8041 33.125 30.9495C31.1638 31.0249 29.0517 31.0734 26.945 31.1003C26.2069 31.1111 25.5226 31.1165 24.9084 31.1165H23.3675L21.3308 31.1003C19.2241 31.0734 17.1175 31.0249 15.1509 30.9495C11.2769 30.7987 8.42134 30.5617 7.29526 30.2601C6.05603 29.9261 5.07543 28.9458 4.74138 27.7016C4.48815 26.7482 4.28341 25.3263 4.13793 23.5919C4.02479 22.2615 3.95474 20.8287 3.91164 19.396C3.89547 18.895 3.89009 18.4264 3.8847 18.0117C3.8847 17.8663 3.87931 17.737 3.87931 17.6293V17.3707C3.87931 17.2576 3.87931 17.1337 3.8847 16.9883C3.89009 16.5682 3.90086 16.105 3.91164 15.604C3.94935 14.1713 4.02479 12.7385 4.13793 11.4081C4.28341 9.67374 4.48815 8.25177 4.74138 7.2984C5.07543 6.05417 6.05603 5.06848 7.29526 4.73992C8.42672 4.43829 11.2769 4.19591 15.1509 4.05048C17.1121 3.97507 19.2241 3.92659 21.3308 3.89966C22.069 3.88889 22.7532 3.8835 23.3675 3.8835H24.9084L26.945 3.89966C29.0517 3.92659 31.1584 3.97507 33.125 4.05048C36.9989 4.20129 39.8545 4.43829 40.9806 4.73992C42.2198 5.07387 43.2004 6.05417 43.5345 7.2984C43.7877 8.25177 43.9925 9.67374 44.1379 11.4081C44.2511 12.7385 44.3211 14.1713 44.3642 15.604C44.3804 16.105 44.3858 16.5736 44.3912 16.9883C44.3912 17.1337 44.3966 17.263 44.3966 17.3707V17.6293ZM19.3427 24.7176L31.8427 17.4461L19.3427 10.2824V24.7176Z" fill="#7882A4"/>
</svg>
